<svg version="1.2" xmlns="http://www.w3.org/2000/svg" viewBox="0 0 830 588" width="830" height="588">
	<title>undraw_startup_life_re_8ow9-svg</title>
	<style>
		.s0 { fill: #a0616a } 
		.s1 { fill: #2f2e41 } 
		.s2 { fill: #3f3d56 } 
		.s3 { fill: #f0f0f0 } 
		.s4 { fill: #cacaca } 
		.s5 { fill: #ffffff } 
		.s6 { fill: #009193 } 
	</style>
	<path id="Layer" class="s0" d="m85.8 572.9v-53.1h20.3l-6.6 53.1h-13.7z"/>
	<path id="Layer" class="s1" d="m85.3 570.2h3.7l14.4-5.9 7.7 5.9c2.2 0 4.3 0.4 6.3 1.3 2 0.8 3.8 2 5.4 3.5 1.5 1.6 2.7 3.4 3.5 5.4 0.9 2 1.3 4.1 1.3 6.3v0.5h-42.3z"/>
	<path id="Layer" class="s0" d="m108 508.6l32.7-41.8 16 12.6-37.9 37.7-10.8-8.5z"/>
	<path id="Layer" class="s1" d="m109.2 506.2l2.9 2.3 15 4.3 2.5 9.4c1.7 1.3 3.1 3 4.2 4.9 1 1.8 1.7 3.9 2 6.1 0.2 2.1 0.1 4.3-0.5 6.4-0.6 2.1-1.6 4-2.9 5.7l-0.3 0.4-33.4-26.1z"/>
	<path id="Layer" class="s1" d="m172.8 266.8c0 0 18.2 18.9 10.1 62.9l6.8 75.3 1.8 3.5q0.8 1.5 1 3.2 0.3 1.8 0 3.5-0.2 1.7-1 3.3-0.8 1.5-2.1 2.8l-1.4 4.4-1.4 8.8-50.4 75.8-19.2-20.3 31.1-71-8.5-18.3-19.6-63.6-13.5 116.4 2.7 100.1h-25.9l-16.1-111.6-16.9-157 8.8-18.2z"/>
	<path id="Layer" class="s2" d="m54.5 299.3l-0.1-0.2c-9.9-13.8 4.9-47 7.2-51.8q-2-0.7-3.7-1.9-1.6-1.3-2.8-3.1-1.1-1.7-1.6-3.8-0.4-2-0.2-4.1l1-8.2 1-8-7.2-7.2v-0.2l-4.2-36.2-6-24.1c-1.1-4.5-1.7-9.2-1.6-13.9 0.1-4.6 0.8-9.3 2.2-13.8 1.3-4.4 3.2-8.7 5.6-12.7 2.4-4 5.4-7.6 8.8-10.8l13.9-2.2 16.9-16.3h27.3l9.4 8.9c17.4 3.1 20.4 2.1 35.4 20.1l-6.8 55.9-1.7 7.7v10.5l4.3 4.8q1.2 1.3 2 2.8 0.9 1.5 1.3 3.2 0.5 1.7 0.6 3.4 0 1.8-0.3 3.5l-0.6 2.8c4.5 2 8.7 35.9 9.7 40.6l1.6 7.1c1.3 1.7 9.8 13.2 9.8 16.3 0 0.5-0.3 0.9-1.1 1.4-5.8 4-29.1 32.1-43.4 26.3-15.2-6.1-75.7 3.1-76.3 3.2z"/>
	<path id="Layer" class="s0" d="m69.6 294.5c3.1 2.6 4.6 6.6 3.9 10.5-0.7 4-3.5 7.2-7.2 8.6-3.8 1.3-8 0.6-11-2.1-3.1-2.6-4.5-6.6-3.7-10.5l-24.5-62.8-4.3-56.4 28-2c7.1 14.9 0.1 54.4 0.1 54.4z"/>
	<path id="Layer" class="s2" d="m22.8 158.8l1.8-18.9q0.5-5.3 2-10.5 1.5-5.1 4-9.8 2.5-4.8 5.9-8.9 3.3-4.2 7.5-7.6c1.7-1.4 3.5-2.5 5.6-3.4 2-0.9 4.1-1.4 6.3-1.7 2.2-0.3 4.4-0.3 6.6 0 2.1 0.3 4.2 1 6.3 1.9 2.6 1.2 5.1 2.9 7.1 5.1 2.1 2.1 3.7 4.6 4.8 7.4 1.2 2.7 1.8 5.7 1.8 8.6 0 3-0.5 6-1.5 8.7-6.5 17-4.2 35-16.8 37.1l1.4 6.6-12.4 40.5-35.4-4.1z"/>
	<path id="Layer" class="s0" d="m262.7 248.9c4 0 7.8 2 9.8 5.5 2.1 3.4 2.1 7.7 0.1 11.2-2 3.5-5.7 5.6-9.7 5.6-4 0-7.7-2.1-9.7-5.6l-59.4-31.6-40.1-40 19.9-19.8c15.1 6.7 35.6 41.3 35.6 41.3z"/>
	<path id="Layer" class="s2" d="m138.7 176.5l-11-15.4q-3.1-4.3-5.3-9.2-2.2-4.9-3.4-10.1-1.1-5.2-1.3-10.6-0.1-5.3 0.8-10.6c0.3-2.2 1-4.3 2-6.3 0.9-1.9 2.2-3.8 3.6-5.4 1.5-1.6 3.2-3.1 5-4.2 1.9-1.2 3.9-2.1 6-2.8 2.9-0.8 5.9-1 8.8-0.8 3 0.3 5.8 1.2 8.5 2.5 2.6 1.4 5 3.2 7 5.4 1.9 2.3 3.4 4.8 4.5 7.6 6.1 17.1 28.6 45.2 20.4 55.1l5.3 4 8 22.8-29.4 20z"/>
	<circle id="Layer" class="s0" cx="95.5" cy="42.6" r="30.3"/>
	<path id="Layer" class="s1" d="m72.7 63.3q0.1 0 0.1-0.1 0.4 0.4 0.7 0.7z"/>
	<path id="Layer" class="s1" d="m122.8 15.4q1 2.5 1.5 5.1 0.4 2.7 0.4 5.4-0.1 2.7-0.7 5.3c-2.3-1.4-4.8-2.9-7.5-2.6-2.4 0.3-4.4 2-6.7 2.7-5 1.4-10-2.1-15.2-2.5-1.6-0.1-3.3 0.1-4.9 0.7-1.5 0.5-3 1.3-4.2 2.4-1.3 1.1-2.3 2.4-3 3.9-0.8 1.5-1.2 3.1-1.3 4.8-0.1 1.6 0.1 3.3-0.1 5q0 0.6-0.2 1.2-0.2 0.6-0.5 1.1-0.4 0.6-0.8 1-0.5 0.4-1 0.8c-2.3 1-5.4-0.5-7.3 1.1-1.7 1.4-1.1 4.2-0.1 6.2 1.1 1.9 2.4 4.2 1.6 6.2q-3.5-3.2-6.3-7.1-2.7-4-4.6-8.4-1.9-4.4-2.8-9.1-0.9-4.6-0.9-9.4 0-1.1 0.1-2.1 0.1-1.1 0.3-2.1 0.2-1 0.6-2 0.3-1 0.7-2 0.5-0.9 1.2-1.7 0.6-0.8 1.5-1.5 0.8-0.6 1.8-1 1-0.4 2-0.5c2.4-0.2 4.9 0.8 7.1 0.1 2.8-1 4-4.2 5.4-6.7q1.4-2.3 3.3-4.2 1.9-1.9 4.2-3.1 2.4-1.3 5-1.9 2.6-0.6 5.3-0.5 0.9 0.1 1.9 0.3 0.9 0.1 1.9 0.3 0.9 0.2 1.8 0.4 1 0.3 1.9 0.6l4.8 1.3q0.7 0.1 1.4 0.3 0.6 0.2 1.3 0.5 0.7 0.2 1.3 0.5 0.7 0.2 1.3 0.5 0.9 0.6 1.8 1.2 0.8 0.6 1.6 1.4 0.8 0.7 1.4 1.6 0.7 0.8 1.3 1.7 1.4 2.3 2.4 4.8z"/>
	<path id="Layer" class="s3" d="m230.1 583.8q0 0 0 0 0 0 0 0 0 0.1 0 0.1 0 0 0 0 0 0.3 0 0.6-0.1 0.3-0.2 0.5 0 0.3-0.1 0.6-0.1 0.3-0.2 0.6h-32.5q-0.7-1.2-1.2-2.4c-3.4-7.2-4.8-15.2-6.1-23l-2.2-12.7q10.5 7.7 21 15.3c2.2 1.6 4.6 3.4 6.8 5.2q0.3-1.9 0.7-3.7l1.6-7.1 7.7 12.4c2.6 4.1 5.3 8.7 4.7 13.6z"/>
	<path id="Layer" class="s3" d="m798.1 581.4q0 0.1 0 0.1 0 0 0 0.1 0 0 0 0 0 0.1 0 0.1-0.1 0.5-0.2 1-0.1 0.5-0.2 1.1-0.1 0.5-0.3 1-0.1 0.5-0.3 1h-59q-1.2-2.2-2.2-4.4c-6.1-12.9-8.6-27.4-11.1-41.6l-3.9-23q19 13.8 38 27.6c4.2 3.1 8.4 6.2 12.4 9.6 0.4-2.3 0.9-4.6 1.4-6.8l2.8-12.9 14 22.5c4.7 7.5 9.5 15.8 8.6 24.6z"/>
	<path id="Layer" class="s4" d="m827.9 587.4l-826.7 0.3c-0.3 0-0.6-0.2-0.8-0.4-0.3-0.2-0.4-0.5-0.4-0.8 0-0.3 0.1-0.6 0.4-0.9 0.2-0.2 0.5-0.3 0.8-0.3l826.7-0.3c0.4 0 0.7 0.1 0.9 0.3 0.2 0.3 0.3 0.6 0.3 0.9 0 0.3-0.1 0.6-0.3 0.8-0.2 0.2-0.5 0.4-0.9 0.4z"/>
	<path id="Layer" class="s2" d="m260.5 233c0.7-1.6 1.7-3.2 2.9-4.4 1.3-1.3 2.8-2.3 4.5-3 1.7-0.7 3.5-1.1 5.3-1.1h425.3c1.8 0 3.6 0.4 5.3 1.1 1.7 0.7 3.2 1.7 4.5 3 1.3 1.2 2.3 2.8 3 4.4 0.7 1.7 1 3.5 1 5.3v287c0 1.8-0.3 3.6-1 5.3-0.7 1.7-1.7 3.2-3 4.5-1.3 1.3-2.8 2.3-4.5 3-1.7 0.7-3.5 1-5.3 1h-425.3c-1.8 0-3.6-0.3-5.3-1-1.7-0.7-3.2-1.7-4.5-3-1.2-1.3-2.3-2.8-2.9-4.5-0.7-1.7-1.1-3.5-1.1-5.3v-287c0-1.8 0.4-3.6 1.1-5.3z"/>
	<path id="Layer" class="s5" d="m269.9 239q0.6-1.3 1.6-2.3 1.1-1.1 2.4-1.7 1.4-0.5 2.8-0.5h418.3q1.5 0 2.8 0.5 1.4 0.6 2.4 1.7 1 1 1.6 2.3 0.6 1.4 0.6 2.9v279.9q0 1.4-0.6 2.8-0.6 1.4-1.6 2.4-1 1-2.4 1.6-1.3 0.5-2.8 0.6h-418.3q-1.4-0.1-2.8-0.6-1.3-0.6-2.4-1.6-1-1-1.6-2.4-0.5-1.4-0.5-2.8v-279.9q0-1.5 0.5-2.9z"/>
	<path id="Layer" class="s1" d="m249.5 579.7q-0.4-0.8-0.6-1.7-0.3-0.9-0.3-1.8 0-1 0.2-1.9l7.1-33.6q0.2-1 0.6-1.9 0.5-1 1.2-1.8 0.7-0.8 1.5-1.4 0.9-0.6 1.9-1 0.3-0.1 0.7-0.2 0.4-0.1 0.7-0.2 0.4 0 0.8-0.1 0.4 0 0.8 0h441.3q0.4 0 0.7 0 0.4 0.1 0.8 0.1 0.4 0.1 0.7 0.2 0.4 0.1 0.8 0.2 0.9 0.4 1.8 1 0.9 0.6 1.5 1.4 0.7 0.8 1.2 1.8 0.5 0.9 0.7 1.9l7 33.6c0.3 1.2 0.3 2.5 0 3.7-0.3 1.2-0.9 2.3-1.7 3.3-0.7 1-1.7 1.8-2.9 2.3-1.1 0.5-2.3 0.8-3.5 0.8h-455.5q-0.9 0-1.8-0.2-1-0.2-1.8-0.6-0.8-0.4-1.6-1-0.7-0.6-1.3-1.3-0.6-0.7-1-1.6z"/>
	<path id="Layer" class="s2" d="m702.1 548.1c0 0.2-0.2 0.4-0.4 0.4h-13.1c-0.3 0-0.5-0.2-0.5-0.4v-7.5c0-0.3 0.2-0.5 0.5-0.5h13.1c0.2 0 0.4 0.2 0.4 0.5z"/>
	<path id="Layer" class="s2" d="m674.1 548.1c0 0.2-0.2 0.4-0.5 0.4h-13c-0.3 0-0.5-0.2-0.5-0.4v-7.5c0-0.3 0.2-0.5 0.5-0.5h13c0.3 0 0.5 0.2 0.5 0.5z"/>
	<path id="Layer" class="s2" d="m646 548.1c0 0.2-0.2 0.4-0.5 0.4h-13c-0.3 0-0.5-0.2-0.5-0.4v-7.5c0-0.3 0.2-0.5 0.5-0.5h13c0.3 0 0.5 0.2 0.5 0.5z"/>
	<path id="Layer" class="s2" d="m618 548.1c0 0.2-0.2 0.4-0.5 0.4h-13.1c-0.2 0-0.4-0.2-0.4-0.4v-7.5c0-0.3 0.2-0.5 0.4-0.5h13.1c0.3 0 0.5 0.2 0.5 0.5z"/>
	<path id="Layer" class="s2" d="m589.9 548.1c0 0.2-0.2 0.4-0.5 0.4h-13c-0.3 0-0.5-0.2-0.5-0.4v-7.5c0-0.3 0.2-0.5 0.5-0.5h13c0.3 0 0.5 0.2 0.5 0.5z"/>
	<path id="Layer" class="s2" d="m561.9 548.1c0 0.2-0.2 0.4-0.5 0.4h-13.1c-0.2 0-0.5-0.2-0.5-0.4v-7.5c0-0.3 0.3-0.5 0.5-0.5h13.1c0.3 0 0.5 0.2 0.5 0.5z"/>
	<path id="Layer" class="s2" d="m533.8 548.1c0 0.2-0.2 0.4-0.5 0.4h-13c-0.3 0-0.5-0.2-0.5-0.4v-7.5c0-0.3 0.2-0.5 0.5-0.5h13c0.3 0 0.5 0.2 0.5 0.5z"/>
	<path id="Layer" class="s2" d="m505.8 548.1c0 0.2-0.3 0.4-0.5 0.4h-13.1c-0.2 0-0.5-0.2-0.5-0.4v-7.5c0-0.3 0.3-0.5 0.5-0.5h13.1c0.2 0 0.5 0.2 0.5 0.5z"/>
	<path id="Layer" class="s2" d="m477.7 548.1c0 0.2-0.2 0.4-0.5 0.4h-13c-0.3 0-0.5-0.2-0.5-0.4v-7.5c0-0.3 0.2-0.5 0.5-0.5h13c0.3 0 0.5 0.2 0.5 0.5z"/>
	<path id="Layer" class="s2" d="m449.7 548.1c0 0.2-0.3 0.4-0.5 0.4h-13.1c-0.3 0-0.5-0.2-0.5-0.4v-7.5c0-0.3 0.2-0.5 0.5-0.5h13.1c0.2 0 0.5 0.2 0.5 0.5z"/>
	<path id="Layer" class="s2" d="m421.6 548.1c0 0.2-0.2 0.4-0.5 0.4h-13c-0.3 0-0.5-0.2-0.5-0.4v-7.5c0-0.3 0.2-0.5 0.5-0.5h13c0.3 0 0.5 0.2 0.5 0.5z"/>
	<path id="Layer" class="s2" d="m393.5 548.1c0 0.2-0.2 0.4-0.4 0.4h-13.1c-0.3 0-0.5-0.2-0.5-0.4v-7.5c0-0.3 0.2-0.5 0.5-0.5h13.1c0.2 0 0.4 0.2 0.4 0.5z"/>
	<path id="Layer" class="s2" d="m365.5 548.1c0 0.2-0.2 0.4-0.5 0.4h-13c-0.3 0-0.5-0.2-0.5-0.4v-7.5c0-0.3 0.2-0.5 0.5-0.5h13c0.3 0 0.5 0.2 0.5 0.5z"/>
	<path id="Layer" class="s2" d="m337.4 548.1c0 0.2-0.2 0.4-0.5 0.4h-13c-0.3 0-0.5-0.2-0.5-0.4v-7.5c0-0.3 0.2-0.5 0.5-0.5h13c0.3 0 0.5 0.2 0.5 0.5z"/>
	<path id="Layer" class="s2" d="m309.4 548.1c0 0.2-0.2 0.4-0.5 0.4h-13.1c-0.2 0-0.4-0.2-0.4-0.4v-7.5c0-0.3 0.2-0.5 0.4-0.5h13.1c0.3 0 0.5 0.2 0.5 0.5z"/>
	<path id="Layer" class="s2" d="m281.3 548.1c0 0.2-0.2 0.4-0.5 0.4h-13c-0.3 0-0.5-0.2-0.5-0.4v-7.5c0-0.3 0.2-0.5 0.5-0.5h13c0.3 0 0.5 0.2 0.5 0.5z"/>
	<path id="Layer" class="s2" d="m702.5 562.1c0 0.3-0.2 0.5-0.5 0.5h-13.1c-0.2 0-0.5-0.2-0.5-0.5v-7.5c0-0.2 0.3-0.4 0.5-0.4h13.1c0.3 0 0.5 0.2 0.5 0.4z"/>
	<path id="Layer" class="s2" d="m674.4 562.1c0 0.3-0.2 0.5-0.5 0.5h-13c-0.3 0-0.5-0.2-0.5-0.5v-7.5c0-0.2 0.2-0.4 0.5-0.4h13c0.3 0 0.5 0.2 0.5 0.4z"/>
	<path id="Layer" class="s2" d="m646.4 562.1c0 0.3-0.3 0.5-0.5 0.5h-13.1c-0.2 0-0.5-0.2-0.5-0.5v-7.5c0-0.2 0.3-0.4 0.5-0.4h13.1c0.2 0 0.5 0.2 0.5 0.4z"/>
	<path id="Layer" class="s2" d="m618.3 562.1c0 0.3-0.2 0.5-0.5 0.5h-13c-0.3 0-0.5-0.2-0.5-0.5v-7.5c0-0.2 0.2-0.4 0.5-0.4h13c0.3 0 0.5 0.2 0.5 0.4z"/>
	<path id="Layer" class="s2" d="m590.3 562.1c0 0.3-0.3 0.5-0.5 0.5h-13.1c-0.3 0-0.5-0.2-0.5-0.5v-7.5c0-0.2 0.2-0.4 0.5-0.4h13.1c0.2 0 0.5 0.2 0.5 0.4z"/>
	<path id="Layer" class="s2" d="m562.2 562.1c0 0.3-0.2 0.5-0.5 0.5h-13c-0.3 0-0.5-0.2-0.5-0.5v-7.5c0-0.2 0.2-0.4 0.5-0.4h13c0.3 0 0.5 0.2 0.5 0.4z"/>
	<path id="Layer" class="s2" d="m534.1 562.1c0 0.3-0.2 0.5-0.4 0.5h-13.1c-0.3 0-0.5-0.2-0.5-0.5v-7.5c0-0.2 0.2-0.4 0.5-0.4h13.1c0.2 0 0.4 0.2 0.4 0.4z"/>
	<path id="Layer" class="s2" d="m506.1 562.1c0 0.3-0.2 0.5-0.5 0.5h-13c-0.3 0-0.5-0.2-0.5-0.5v-7.5c0-0.2 0.2-0.4 0.5-0.4h13c0.3 0 0.5 0.2 0.5 0.4z"/>
	<path id="Layer" class="s2" d="m478 562.1c0 0.3-0.2 0.5-0.4 0.5h-13.1c-0.3 0-0.5-0.2-0.5-0.5v-7.5c0-0.2 0.2-0.4 0.5-0.4h13.1c0.2 0 0.4 0.2 0.4 0.4z"/>
	<path id="Layer" class="s2" d="m450 562.1c0 0.3-0.2 0.5-0.5 0.5h-13.1c-0.2 0-0.4-0.2-0.4-0.5v-7.5c0-0.2 0.2-0.4 0.4-0.4h13.1c0.3 0 0.5 0.2 0.5 0.4z"/>
	<path id="Layer" class="s2" d="m421.9 562.1c0 0.3-0.2 0.5-0.5 0.5h-13c-0.3 0-0.5-0.2-0.5-0.5v-7.5c0-0.2 0.2-0.4 0.5-0.4h13c0.3 0 0.5 0.2 0.5 0.4z"/>
	<path id="Layer" class="s2" d="m393.9 562.1c0 0.3-0.2 0.5-0.5 0.5h-13.1c-0.2 0-0.5-0.2-0.5-0.5v-7.5c0-0.2 0.3-0.4 0.5-0.4h13.1c0.3 0 0.5 0.2 0.5 0.4z"/>
	<path id="Layer" class="s2" d="m365.8 562.1c0 0.3-0.2 0.5-0.5 0.5h-13c-0.3 0-0.5-0.2-0.5-0.5v-7.5c0-0.2 0.2-0.4 0.5-0.4h13c0.3 0 0.5 0.2 0.5 0.4z"/>
	<path id="Layer" class="s2" d="m337.8 562.1c0 0.3-0.3 0.5-0.5 0.5h-13.1c-0.2 0-0.5-0.2-0.5-0.5v-7.5c0-0.2 0.3-0.4 0.5-0.4h13.1c0.2 0 0.5 0.2 0.5 0.4z"/>
	<path id="Layer" class="s2" d="m309.7 562.1c0 0.3-0.2 0.5-0.5 0.5h-13c-0.3 0-0.5-0.2-0.5-0.5v-7.5c0-0.2 0.2-0.4 0.5-0.4h13c0.3 0 0.5 0.2 0.5 0.4z"/>
	<path id="Layer" class="s2" d="m281.7 562.1c0 0.3-0.3 0.5-0.5 0.5h-13.1c-0.3 0-0.5-0.2-0.5-0.5v-7.5c0-0.2 0.2-0.4 0.5-0.4h13.1c0.2 0 0.5 0.2 0.5 0.4z"/>
	<path id="Layer" class="s2" d="m536.8 578.9c0 0.3-0.2 0.5-0.5 0.5h-111.2c-0.3 0-0.5-0.2-0.5-0.5v-7.4c0-0.3 0.2-0.5 0.5-0.5h111.2c0.3 0 0.5 0.2 0.5 0.5z"/>
	<path id="Layer" class="s2" d="m581.2 404c-0.1 49-37.6 89.8-86.4 94.1-48.8 4.3-92.8-29.3-101.4-77.5-8.7-48.2 20.8-95.1 68.1-108 47.2-13 96.5 12.2 113.7 58.1q0.3 0.8 0.6 1.7 1.3 3.7 2.3 7.5 0.7 3 1.3 6 0.6 3 1 6 0.4 3 0.6 6.1 0.2 3 0.2 6z"/>
	<path id="Layer" class="s6" d="m470.2 349.4c-0.8 4-1.4 8.5-3.4 11.6-1.8 2.6-4.3 3.6-6.6 5.1q-1 0.6-1.8 1.4-0.9 0.8-1.5 1.8-0.7 1-1.1 2.1-0.4 1-0.6 2.2c-3.1-3.4-4.7-9.4-4-14.9l0.3-0.1c-1.3-7.9-8.2-12.8-13.5-9.7 1.3-5.5 5.5-8.6 9.4-10.3q3.3-1.5 6.9-2.1 3.6-0.7 7.2-0.6 3.7 0.2 7.2 1.2 3.5 0.9 6.7 2.7c-2.8 1.1-4.4 5.5-5.2 9.6z"/>
	<path id="Layer" class="s6" d="m445.8 386.4c-1.5 2.2-3.4 3.6-5.2 5.3q-0.7 0.7-1.4 1.5-0.6 0.8-1.1 1.7-0.4 0.9-0.8 1.9-0.3 1-0.4 2c-0.3 1.9 0.1 3.8 0 5.8 0 1.9-0.7 4.1-2 4.6-2.1 0.7-3.6-3.1-5.8-3.4-1.7-0.2-3.2 2.5-2.7 4.8 0.5 2.3 2.8 3.3 4.1 1.8 1.2 2 0.4 5.7-1.4 6.3q-0.3 1.9-0.6 3.8c-4.6-3.2-9.2-6.4-13.1-11.1q-1.6-1.9-2.9-4.1-1.3-2.1-2.3-4.4-0.9-2.3-1.6-4.7-0.6-2.5-0.8-5c-0.5-5.3 0.2-11.5-2.3-15.6-1.9-3.3-5.3-4.1-8.4-3.8q-0.8 0-1.7 0.1 0.7-2 1.5-4 0.8-2 1.6-3.9 0.9-2 1.8-3.9 0.9-1.9 2-3.8 0.2-0.1 0.4-0.2 0.3-0.1 0.5-0.3 0.2-0.1 0.4-0.2 0.2-0.2 0.4-0.4c2.8-2.4 4.1-7.2 6.4-10.6q0.2-0.3 0.4-0.6c2.4-3.1 5.6-4.7 8.6-6.2 6.8-3.3 13.7-6.6 20.8-6.1l-2 0.2q-3.6 9.9-7.1 19.9-0.6 1.5-1.1 3c-1.3 3.8-2.7 7.8-2.5 12 0.1 2.5 1 5.2 2.6 6 1.6 0.8 3.2-0.1 4.7-1.1q1-0.6 1.9-1.2c2.3-1.5 4.8-3 7.2-2 2.1 0.9 3.8 3.9 4.1 7.1q0.1 1.1 0 2.3-0.1 1.1-0.4 2.3-0.2 1.1-0.7 2.2-0.5 1.1-1.1 2z"/>
	<path id="Layer" class="s6" d="m459.9 432.1q0.3 0.2 0.5 0.4 0.3 0.2 0.5 0.5 0.3 0.3 0.5 0.6 0.3 0.6 0.5 1.2 0.1 0.7 0.2 1.3 0.1 0.7 0 1.4-0.1 0.6-0.2 1.3-0.2 0.6-0.4 1.2-0.2 0.6-0.5 1.2-0.3 0.5-0.6 1.1-0.3 0.5-0.6 1.1-2.5 4.2-5.1 8.3-2.7 4.1-5.6 8-2.9 4-5.9 7.8-3.1 3.8-6.3 7.5 1-2.9 1.6-5.8 0.6-3 0.8-6 0.2-3 0-6.1-0.1-3-0.7-6c-1.2-5.8-3.5-11.1-4.2-17.1-0.6-5.9 1.1-13.2 5.2-14.8l-0.2 0.3q10 6.1 19.9 12.2 0.3 0.1 0.6 0.4z"/>
	<path id="Layer" class="s6" d="m433.8 356.7q0.3-0.5 0.6-1 0.4-0.5 0.8-1 0.4-0.4 0.8-0.8l1.1-1.3q2.8 2.8 5.6 5.6c1.4 1.4 2.8 3 3.1 5.3 0.3 2.2-0.7 4.5-2.2 5.1-1.3 0.5-2.6-0.1-3.8-0.7l-3.6-1.8q-0.6-0.2-1.1-0.5-0.5-0.3-0.9-0.7-0.4-0.4-0.8-0.9-0.3-0.4-0.5-1-0.2-0.6-0.3-1.3-0.1-0.7-0.1-1.3 0.1-0.7 0.2-1.4 0.2-0.6 0.5-1.3 0.3-0.5 0.6-1z"/>
	<path id="Layer" class="s6" d="m561.6 382.4q2.5 0.6 4.9 1.2c-0.3 5.5-3 10.7-6.7 12.5-1.5 0.8-3.2 1.1-4.5 2.5-1.2 1.3-1.7 3.4-2.3 5.3q-1.4 5.2-2.8 10.3c-1 3.6-2.3 7.7-4.9 9-2.2 1.2-4.8-0.2-6.5-2.5-1.8-2.4-2.8-5.5-3.8-8.6 0 3.4-1.5 6.6-3.7 7.8-2.2 1.1-4.9 0.1-6.4-2.5-1-1.8-1.5-4.3-2.5-6.2-1-1.9-3.2-2.9-4.4-1.2-0.7 1.2-0.6 3-1 4.5q-0.1 0.7-0.5 1.4-0.3 0.7-0.9 1.2-0.5 0.5-1.2 0.8-0.7 0.4-1.4 0.5-0.7 0-1.4-0.2-0.7-0.1-1.3-0.4-0.6-0.3-1.2-0.7-0.5-0.4-1-0.9-1.2-1.3-2.2-2.7-1-1.4-1.8-2.9-0.7-1.6-1.2-3.2-0.6-1.7-0.8-3.4-0.2-0.8-0.3-1.6 0-0.9 0-1.7 0-0.9 0.1-1.7 0.1-0.8 0.4-1.6c0.6-2.1 2.2-3.7 3.7-3.3 1.1-2.2-1-5-2.8-4.8-1.8 0.3-3.3 2.2-4.8 3.7-1.5 1.5-3.6 2.6-5.1 1.1q0.1 0.5-0.1 0.9-0.1 0.4-0.4 0.7-0.3 0.3-0.7 0.5-0.4 0.1-0.9 0.1-0.3-0.1-0.7-0.2-0.4-0.2-0.7-0.3-0.4-0.2-0.7-0.4-0.3-0.3-0.6-0.5c-3.5-2.2-7.8-0.7-10.3 3.3 1.5-6.5 3.8-14 8.5-15.5 1.9-0.6 4-0.1 5.9-1.2 3.2-2 3.8-9.3 1-12.3 0.4 2.9 0.3 6.2-1.2 8.2-1.5 1.9-4.6 0.6-4.4-2.2q-0.1 0.6-0.5 1-0.5 0.5-1.1 0.6-0.6 0.2-1.1-0.1-0.6-0.2-0.9-0.8c-1-1.5-0.9-4-0.2-5.8q0.2-0.6 0.6-1.2 0.3-0.6 0.7-1.2 0.4-0.5 0.8-1 0.5-0.5 0.9-1c2.6-2.7 5.1-5.4 8-7.1 2.9-1.7 6.3-2.3 9.2-0.6 1.6 0.9 2.9 2.4 4.5 3.2q0.6 0.3 1.2 0.4 0.7 0.1 1.3 0 0.7-0.2 1.2-0.6 0.6-0.4 0.9-1c1.2-2.1 0.6-5.1 1.1-7.7 0.7-4.5 5.3-6.6 7.8-3.6-1.9-0.5-3.8 1.7-4.1 4.4-0.2 2.7 1.2 5.4 3 6.2 3 1.4 6-2 8.3-5.2q3.7-4.9 7.3-9.9 0.1-0.2 0.3-0.4 0.2-0.2 0.3-0.4 0.2-0.2 0.3-0.4 0.2-0.2 0.4-0.4 0.6-0.5 1.3-0.8 0.7-0.3 1.5-0.3 0.8-0.1 1.6 0.2 0.7 0.3 1.3 0.8c2.4 2 3.6 6.1 5.6 8.9 2.9 4.1 7.3 5.1 11.3 5.9q4.6 0.9 9.1 1.8 0.7 1.4 1.5 2.8 0.7 1.5 1.3 2.9 0.7 1.5 1.3 2.9 0.6 1.5 1.2 3-2.1 1-4 2.2-1.9 1.2-3.7 2.7-1.7 1.5-3.2 3.2-1.5 1.7-2.7 3.6z"/>
	<path id="Layer" class="s6" d="m578.1 379.9q-0.3 0.7-0.4 1.4-0.2 0.7-0.3 1.4-0.2 0.7-0.2 1.5-0.1 0.7-0.1 1.4c-2.6-3.2-3-9.1-1.3-13.2q1.3 3.7 2.3 7.5z"/>
	<path id="Layer" class="s6" d="m571.4 446.1q-0.9 1.8-1.8 3.4-0.9 1.7-1.9 3.4-1 1.6-2 3.2-1.1 1.7-2.2 3.2c-1.9-0.8-4 0.7-5.8 2-1.8 1.5-4.1 2.9-6 1.5-1.9-1.3-2.6-5-1.9-8q0.2-1 0.6-2 0.4-1 0.8-1.9 0.5-1 1-1.9 0.6-0.9 1.2-1.7c1.6-2.4 3.3-4.8 5.5-5.8 2.2-0.9 5.1 0.4 5.7 3.6l1.6-0.1c-0.9-1.2-0.4-3.7 0.8-4.1 1.3-0.6 2.5 1.3 3.3 3q0.5 1.1 1.1 2.2z"/>
	<path id="Layer" class="s6" d="m509.1 436.5c-2 3.6-4.5 6.9-5.5 11.3-0.5 2.5-0.5 5.2-1.2 7.6-1.4 4.9-6.2 7.2-9.4 4.5-2.6-2.2-3.8-6.6-4.3-10.8-0.4-4.2-0.3-8.5-0.9-12.7-0.6-4.1-2.3-8.4-5.1-9.8-2.3-1.2-4.9-0.4-7.1-1.6-2.8-1.6-4.3-6.4-3.9-10.7q0.1-1.5 0.5-2.9 0.4-1.4 1-2.8 0.7-1.3 1.5-2.5 0.8-1.3 1.8-2.4 0.9-0.8 1.9-1.6 0.9-0.8 2-1.6 1-0.7 2-1.3 1.1-0.7 2.2-1.2l2.2 0.8q0.3 0.8 0.7 1.5 0.5 0.6 1.1 1.2 0.7 0.5 1.4 0.9 0.7 0.4 1.5 0.6c1.9 0.6 3.9 0.8 5.6 1.9 3.1 2.1 4.7 6.8 6.5 10.9 1.7 4 4.4 8.2 7.8 8 1.3 4.2-0.3 9.1-2.3 12.7z"/>
	<path id="Layer" class="s6" d="m477.9 380.2q-0.1-0.2-0.2-0.4-0.1-0.1-0.1-0.3 0-0.2 0-0.4c0-0.9 1-1.4 1.1-2.3 0-0.7-0.4-1.3-0.5-1.9q-0.1-0.3 0-0.5 0-0.3 0.1-0.5 0.1-0.2 0.2-0.4 0.2-0.2 0.4-0.3l-0.1-0.1q0.5 0.2 0.9 0.4 0.5 0.3 0.9 0.7 0.4 0.4 0.6 0.9 0.3 0.5 0.4 1 0 0.3 0.1 0.5 0 0.3 0.1 0.6 0.1 0.3 0.2 0.5 0.2 0.3 0.3 0.5c0.3 0.4 0.6 0.6 0.8 1q0 0.3 0 0.5 0 0.3 0 0.6-0.1 0.2-0.2 0.5-0.1 0.2-0.3 0.4-0.1 0.3-0.3 0.6-0.2 0.3-0.4 0.6-0.2 0.3-0.4 0.5-0.3 0.3-0.5 0.6-0.2 0.2-0.4 0.4-0.3 0.2-0.5 0.3-0.3 0.2-0.6 0.2-0.3 0.1-0.6 0.1 0.2-0.3 0.3-0.7 0.2-0.4 0.2-0.8 0-0.4-0.1-0.9-0.1-0.4-0.3-0.7-0.1-0.1-0.2-0.3-0.2-0.1-0.3-0.2-0.1-0.1-0.2-0.2-0.1-0.1-0.2-0.2-0.1-0.2-0.2-0.3z"/>
	<path id="Layer" class="s6" d="m472.6 363.7q0 0-0.1 0.1 0 0 0 0-0.1 0.1-0.1 0.1 0 0.1-0.1 0.1z"/>
	<path id="Layer" class="s6" d="m472.8 368.7q-0.3 0.1-0.5 0.1-0.3 0-0.6-0.1-0.2 0-0.5-0.1-1.4-0.5-2.8-0.9-0.1 0-0.1 0-0.1 0-0.1-0.1-0.1 0-0.1-0.1-0.1 0-0.1-0.1 0 0 0-0.1 0-0.1 0-0.2 0 0 0-0.1 0.1-0.1 0.1-0.1 0.2-0.8 0.5-1.5 0-0.1 0-0.3 0.1-0.1 0.1-0.2 0.1-0.1 0.2-0.2 0.1-0.2 0.2-0.3c0.4-0.3 0.9 0 1.4 0.1q0.3 0.1 0.5 0.1 0.3 0 0.5-0.1 0.2-0.1 0.4-0.2 0.3-0.1 0.4-0.3c0.8-0.2 1.7 0.5 1.9 1.6q0.1 0.4 0.1 0.8 0 0.4-0.1 0.8-0.1 0.4-0.4 0.7-0.2 0.4-0.5 0.6-0.2 0.2-0.5 0.2z"/>
	<path id="Layer" class="s6" d="m545.3 431.7q0.1 0.1 0.2 0.3 0.1 0.2 0.2 0.4 0 0.2 0.1 0.4 0 0.3 0 0.6 0 0.3-0.1 0.6-0.1 0.3-0.2 0.6-0.1 0.3-0.3 0.5c-0.5 0.9-1.3 1.5-2 1.1q-0.2-0.2-0.3-0.4-0.2-0.2-0.3-0.4-0.1-0.3-0.1-0.5-0.1-0.3-0.1-0.5c-0.1-0.8-0.1-1.5-0.2-2.3q-0.1-0.6-0.3-1.2-0.2-0.6-0.5-1.2-0.3-0.6-0.7-1.1-0.3-0.5-0.8-1v-0.4q0.2-0.2 0.4-0.4 0.3-0.1 0.6-0.2 0.3 0 0.6 0.1 0.3 0.1 0.6 0.3 0.2 0.2 0.5 0.5 0.2 0.2 0.4 0.5 0.3 0.3 0.4 0.5 0.2 0.3 0.4 0.7 0.7 1 1.3 2.1 0.1 0.2 0.2 0.4z"/>
	<path id="Layer" class="s6" d="m550.6 432.7q-0.3 0-0.6-0.2-0.2-0.1-0.5-0.3-0.2-0.2-0.4-0.4-0.2-0.2-0.3-0.4-0.2-0.3-0.3-0.7-0.1-0.3-0.1-0.7 0-0.3 0.1-0.6 0.1-0.4 0.2-0.7c0.4-0.5 0.9-0.6 1.1-1.2q0.1-0.2 0.1-0.4 0.1-0.1 0.1-0.3 0.1-0.2 0.1-0.4 0-0.2 0.1-0.4 0-0.3 0.2-0.5 0.1-0.2 0.3-0.4 0.1-0.2 0.3-0.4 0.3-0.1 0.5-0.2 0.2-0.1 0.4-0.1 0.3-0.1 0.5-0.1 0.2 0 0.4 0 0.2 0 0.5 0.1l-0.5-0.3c0.2-0.3 0.6-0.1 0.7 0.2q0.1 0.2 0.1 0.3 0 0.1 0 0.3 0 0.1 0 0.3 0 0.1 0 0.2-0.1 0.4-0.2 0.7-0.1 0.2-0.3 0.5-0.1 0.3-0.2 0.6-0.2 0.3-0.4 0.5-0.1 0.3-0.3 0.6-0.1 0.3-0.2 0.6-0.1 0.4-0.1 0.7-0.1 0.3 0 0.6 0 0.3 0.1 0.5 0 0.3 0 0.5 0.1 0.3 0.1 0.5-0.1 0.3-0.1 0.6c-0.2 0.6-0.9 0.6-1.4 0.4z"/>
	<path id="Layer" class="s6" d="m560.1 431.8l0.3-0.1q0.6 0 1.3 0 0.6 0.1 1.3 0.2 0.6 0.1 1.3 0.2 0.6 0.2 1.3 0.4 0.9 0.4 1.8 1.1 0.8 0.6 1.5 1.5 0.6 0.8 1.1 1.7 0.4 1 0.6 2-0.3-0.4-0.7-0.7-0.4-0.3-0.8-0.4-0.5-0.2-1-0.3-0.5 0-0.9 0c-0.8 0.2-1.6 0.5-2.1 0q-0.2-0.2-0.3-0.4-0.1-0.1-0.2-0.3-0.1-0.2-0.1-0.4-0.1-0.2-0.2-0.3c-1.1-2-3.5-2-4.2-4.2z"/>
	<path id="Layer" class="s6" d="m512.4 440.4l-0.1 0.2v-0.1z"/>
	<path id="Layer" class="s6" d="m512.3 440.6q0.3 0.6 0.4 1.3 0.2 0.8 0.2 1.5 0.1 0.7 0 1.4-0.1 0.8-0.3 1.5-0.1 0.7-0.4 1.3-0.2 0.7-0.5 1.3-0.2 0.7-0.6 1.3-0.3 0.6-0.6 1.2-0.1 0.1-0.1 0.3-0.1 0.1-0.2 0.2-0.1 0.1-0.2 0.2-0.1 0.1-0.2 0.2 0 0.1-0.1 0.2-0.2 0.1-0.3 0.1-0.1 0-0.2 0-0.1-0.1-0.2-0.1c-0.5-0.4-0.5-1.4-0.4-2.1q0.1-0.5 0.1-1 0.1-0.5 0.2-1 0.1-0.5 0.2-1 0.1-0.5 0.3-1 0.1-0.3 0.2-0.5 0.1-0.3 0.3-0.6 0.1-0.3 0.2-0.6 0.2-0.3 0.3-0.6 1-1.8 1.9-3.5z"/>
	<path id="Layer" class="s6" d="m491.9 347.1q-0.3-0.5-0.4-1.1-0.1-0.5-0.1-1.1 0-0.5 0.1-1.1 0.1-0.2 0.2-0.5 0-0.2 0.1-0.5 0.1-0.2 0.2-0.5 0.1-0.2 0.2-0.5c0.5-0.9 1.4-1.7 2.1-1.3l-0.7 0.7q1.6 0.5 3.2 0.9 0.2 0.1 0.5 0.2 0.3 0.1 0.5 0.3 0.2 0.2 0.4 0.4 0.1 0.2 0.3 0.5 0 0.2 0.1 0.5 0 0.3-0.1 0.6 0 0.3-0.1 0.5-0.1 0.3-0.2 0.6-0.1 0.2-0.3 0.4-0.1 0.2-0.3 0.3-0.2 0.2-0.3 0.4-0.2 0.1-0.4 0.3-0.3 0.2-0.5 0.4-0.3 0.2-0.5 0.4-0.3 0.2-0.6 0.3-0.3 0.2-0.6 0.3-0.3 0.1-0.6 0.2-0.3 0-0.6-0.1-0.3 0-0.6-0.2-0.2-0.1-0.5-0.3-0.3-0.5-0.5-1z"/>
	<path id="Layer" class="s6" d="m510.6 341.1q-0.1-0.4-0.2-0.8 0-0.4 0-0.9 0-0.4 0.2-0.8c0.6-1.3 2-1.3 3.1-1.1l-0.1 0.8c0.6 0.1 1 1 0.9 1.8q0 0.3-0.1 0.6-0.1 0.2-0.2 0.5-0.2 0.2-0.3 0.4-0.2 0.2-0.4 0.4-0.3 0.2-0.6 0.3-0.3 0.1-0.7 0.1-0.3-0.1-0.6-0.2-0.3-0.1-0.5-0.4-0.3-0.3-0.5-0.7z"/>
	<path id="Layer" class="s4" d="m679.5 285.2h-387.3q-0.4-0.1-0.7-0.4-0.3-0.2-0.3-0.7 0-0.4 0.3-0.7 0.3-0.3 0.7-0.3h387.3q0.4 0 0.7 0.3 0.3 0.3 0.3 0.7 0 0.5-0.3 0.7-0.3 0.3-0.7 0.4z"/>
	<ellipse id="Layer" class="s2" cx="314.6" cy="259.8" rx="10.9" ry="11.2"/>
	<ellipse id="Layer" class="s2" cx="352.3" cy="259.8" rx="10.9" ry="11.2"/>
	<ellipse id="Layer" class="s2" cx="390" cy="259.8" rx="10.9" ry="11.2"/>
	<path id="Layer" class="s2" d="m658.3 252c0.4 0.4 0.6 0.9 0.6 1.4 0 0.5-0.2 1-0.6 1.4-0.3 0.4-0.9 0.6-1.4 0.6h-26.8c-0.5 0-1-0.2-1.4-0.6-0.4-0.4-0.6-0.9-0.6-1.4 0-0.5 0.2-1 0.6-1.4 0.4-0.4 0.9-0.6 1.4-0.6h26.8c0.5 0 1.1 0.2 1.4 0.6z"/>
	<path id="Layer" class="s2" d="m658.3 259.6c0.4 0.4 0.6 0.9 0.6 1.4 0 0.6-0.2 1.1-0.6 1.4-0.3 0.4-0.9 0.6-1.4 0.7h-26.8c-0.5-0.1-1-0.3-1.4-0.7-0.4-0.3-0.6-0.8-0.6-1.4 0-0.5 0.2-1 0.6-1.4 0.4-0.4 0.9-0.6 1.4-0.6h26.8c0.5 0 1.1 0.2 1.4 0.6z"/>
	<path id="Layer" class="s2" d="m658.3 267.2c0.4 0.4 0.6 0.9 0.6 1.4 0 0.6-0.2 1.1-0.6 1.5-0.3 0.3-0.9 0.5-1.4 0.6h-26.8c-0.5-0.1-1-0.3-1.4-0.6-0.4-0.4-0.6-0.9-0.6-1.5 0-0.5 0.2-1 0.6-1.4 0.4-0.4 0.9-0.6 1.4-0.6h26.8c0.5 0 1.1 0.2 1.4 0.6z"/>
	<g id="Layer" style="opacity: .3">
		<path id="Layer" class="s5" d="m691.1 408.6c-3.8 2.6-22 5.4-39.9 6.8-17.8 1.5-35.4 1.9-52.2 2.2-40.1 0.7-79.5 1.1-117.9 1.2-18.5 0-37.2-0.1-50.1-1.4-11.9-1.2-17.9-3.3-31.5-4.2-24.4-1.6-66.5 1.4-90.1-0.4-12.7-0.9-17.9-3-19.9-5.4-3.2-3.6 0.6-7.8 14.3-12.2 13.7-4.3 37.9-8.7 66.2-11.4 28.3-2.6 60-3.3 76.2-1.2 6.2 0.8 10 1.9 15.5 2.8q2.9 0.4 5.9 0.7 3 0.3 6 0.5 3 0.1 6 0.2 3 0 5.9-0.2c11.3-0.3 24.3-1.7 34.4-1.6 17.7 0.1 10.5 4.4 22.7 5.8 13 1.5 41.4-1 58.6-0.3 13.9 0.5 17.3 2.9 18 5.2 0.8 2.3 0.1 4.8 9 6.2 9.1 1.5 26.5 1.5 40.8 2 14.4 0.5 27 2.1 20.8 4.8"/>
	</g>
</svg>