<svg version="1.2" xmlns="http://www.w3.org/2000/svg" viewBox="0 0 913 470" width="913" height="470">
	<title>undraw_phone_call_re_hx6a-svg</title>
	<style>
		.s0 { fill: #f2f2f2 } 
		.s1 { fill: #234242 } 
		.s2 { fill: #e6e6e6 } 
		.s3 { fill: #354f4f } 
		.s4 { fill: #a0616a } 
		.s5 { fill: #2f2e41 } 
		.s6 { fill: #009193 } 
		.s7 { fill: #3f3d56 } 
		.s8 { fill: #cccccc } 
	</style>
	<path id="Layer" class="s0" d="m664.2 292.4q0.3 1.1 0.4 2.3 0.1 1.2 0.2 2.4 0.1 1.2 0 2.4-1.2 1.5-2.5 3.1 0 0 0 0 0 0 0 0.1-0.1 0-0.1 0 0 0 0 0-2.5 3.1-5 6.1 0.8 0.2 1.6 0.2 0.7 0.1 1.5 0.2 0.8 0 1.6 0 0.7 0 1.5 0-0.1 0.4-0.2 0.7h-22.3q-1-2.2-1.9-4.4-0.9-2.2-1.7-4.5-0.8-2.3-1.4-4.6-0.7-2.3-1.2-4.7h-0.1c-13.1 4.5-25.4 3.1-28.3-12.4q-1.1-1.2-2.1-2.5-0.9-1.3-1.8-2.7-0.9-1.3-1.7-2.8-0.7-1.4-1.3-2.9 0 0 0.1-0.1h0.1c0.8-0.1 1.5-0.4 2-1 0.6-0.5 1-1.2 1.1-1.9 0.2-0.8 0.1-1.5-0.2-2.3-0.2-0.7-0.7-1.3-1.4-1.7q-0.7-0.5-1.5-0.9-0.4-0.2-0.7-0.4-0.4-0.2-0.7-0.4-0.4-0.2-0.8-0.3-0.3-0.2-0.7-0.3 0-0.1 0-0.2c-0.1-0.8 0-1.7 0.3-2.4 0.4-0.8 1-1.4 1.7-1.9 0.7-0.4 1.5-0.7 2.3-0.7 0.9 0 1.7 0.3 2.4 0.7 6.6 4.1 15.2 5.9 21.3 11q1.6 1.2 2.9 2.8 1.3 1.5 2.3 3.2 1 1.7 1.7 3.6 0.7 1.8 1.1 3.8v0.2q-0.1-1.8-0.2-3.6-0.1-1.8-0.1-3.5 0-1.8 0-3.6 0.1-1.8 0.2-3.6 0.3-3 0.7-6 0.5-2.9 1.1-5.9 0.6-2.9 1.4-5.8 0.8-3 1.8-5.8-0.4-0.2-0.9-0.5c-14.1-0.3-24-6.7-19.4-24.4q-0.2-0.7-0.3-1.4-0.2-0.7-0.3-1.4-0.1-0.7-0.2-1.5-0.1-0.7-0.2-1.4h0.1c0.7-0.1 1.4-0.5 2-1 0.6-0.5 0.9-1.2 1.1-1.9 0.2-0.8 0.1-1.6-0.2-2.3-0.3-0.7-0.8-1.3-1.4-1.7q-0.8-0.5-1.5-1 0-0.1 0-0.2c0.7-6.8 9.5-9.2 13.8-3.8 3.6 4.5 7.6 8.9 9.8 14.1q0.8 2.1 1.3 4.3 0.6 2.2 0.9 4.4 0.3 2.2 0.3 4.4 0 2.3-0.2 4.5 1-2 2-3.9 1.1-2 2.3-3.9 1.2-1.8 2.5-3.7 1.3-1.8 2.7-3.5 0.3-0.4 0.6-0.8c-2-3.1-2.3-7-4.5-9.9-3.5-4.6-3.4-9.4 2.2-12.2 2.7-6.8 7.8-7.7 11.5-2.7 0.7 1 1.9 1.5 2.6 2.6-0.4 0.4 1 7.8 1.5 7.8q-0.1 0.6-0.3 1.3-0.2 0.6-0.4 1.2-0.2 0.7-0.4 1.3-0.3 0.6-0.6 1.2-0.8 1.6-1.9 3.1-1 1.5-2.3 2.9-1.3 1.3-2.7 2.4-1.5 1.1-3.1 2-3.3 4.2-6.2 8.7-2.8 4.5-5 9.4-2.3 4.8-4 9.9-1.7 5.1-2.7 10.3-0.8 3.9-1.3 7.8-0.1 1.2-0.2 2.4-0.1 1.2-0.2 2.4 0 1.2-0.1 2.4 0 1.3 0 2.5 0 4.8 0.5 9.5 0.5 4.8 1.6 9.5 1 4.6 2.5 9.2 1.5 4.5 3.5 8.9-0.2-0.9-0.3-1.9-0.1-1-0.2-1.9 0-1 0-2 0-0.9 0.1-1.9c0.8-5.8 3.6-11.3 5.9-16.7 0.6-1.4 1.6-2.6 2.8-3.4 1.2-0.8 2.7-1.3 4.2-1.3 1.4 0 2.9 0.4 4.1 1.3 1.3 0.8 2.3 1.9 2.8 3.3q0.1 0.1 0.1 0.2l-0.2 0.8c-0.4 0.4-0.7 0.9-0.8 1.4-0.1 0.6-0.1 1.2 0.1 1.7 0.3 0.5 0.6 1 1.1 1.3 0.5 0.3 1.1 0.5 1.6 0.4q0.3 1.2 0.5 2.4z"/>
	<path id="Layer" class="s1" d="m747.6 351.2c5.4 2.2 10.3 5.5 14.5 9.7 4.1 4.1 7.4 9 9.6 14.4 2.3 5.5 3.4 11.3 3.4 17.1v74.4h-14v-41c0-5.9-1.1-11.7-3.4-17.1-2.2-5.4-5.5-10.4-9.6-14.5-4.2-4.1-9.1-7.4-14.5-9.7-5.4-2.2-11.2-3.4-17.1-3.4h-145.7c-5.9 0-11.7 1.2-17.1 3.4-5.4 2.3-10.3 5.6-14.5 9.7-4.1 4.1-7.4 9.1-9.7 14.5-2.2 5.4-3.4 11.2-3.4 17.1v41h-14v-74.4c0-5.8 1.2-11.6 3.4-17.1 2.3-5.4 5.6-10.3 9.7-14.4 4.2-4.2 9.1-7.5 14.5-9.7 5.4-2.2 11.2-3.4 17.1-3.4h173.7c5.9 0 11.7 1.2 17.1 3.4z"/>
	<ellipse id="Layer" class="s2" cx="644.6" cy="360.3" rx="45.5" ry="6.5"/>
	<path id="Layer" class="s0" d="m679 361.9h-60.6c-14.9-14.3-25.6-28.1-17.1-39.6 0-1.6 0.4-3.2 1-4.8 0.6-1.5 1.5-2.8 2.7-4 1.1-1.1 2.5-2.1 4-2.7 1.5-0.6 3.1-0.9 4.8-0.9h69.9c1.6 0 3.2 0.3 4.8 0.9 1.5 0.6 2.8 1.6 4 2.7 1.1 1.2 2.1 2.5 2.7 4 0.6 1.6 0.9 3.2 0.9 4.8 3.3 13.1-2.5 26.3-17.1 39.6z"/>
	<path id="Layer" class="s3" d="m490.3 150.2c3.9 1.6 7.4 3.9 10.4 6.9 2.9 2.9 5.3 6.5 6.9 10.3 1.6 3.9 2.4 8.1 2.4 12.3 0 4.2-0.8 8.5-2.5 12.4-1.7 4-4.1 7.6-7.2 10.5-3.1 3-6.8 5.3-10.8 6.9-4 1.5-8.2 2.2-12.5 2.1l-12-0.5v100.6h-234v-100.6l-11.9 0.5c-4.3 0.1-8.6-0.6-12.6-2.1-4-1.6-7.6-3.9-10.7-6.9-3.1-2.9-5.6-6.5-7.2-10.5-1.7-3.9-2.6-8.2-2.6-12.4 0-4.2 0.8-8.4 2.5-12.3 1.6-3.8 3.9-7.4 6.9-10.3 2.9-3 6.5-5.3 10.3-6.9 3.9-1.6 8.1-2.5 12.3-2.5 91.5-34.9 32.9-137.5 136-113 79.5-33.6 51.8 72 124.1 113 4.2 0 8.3 0.9 12.2 2.5z"/>
	<path id="Layer" class="s3" d="m459.3 359.4c1.1 0.5 2.2 1.2 3 2 0.9 0.9 1.6 1.9 2 3 0.5 1.2 0.7 2.4 0.7 3.6v13.5c0 1.2-0.2 2.4-0.7 3.5-0.4 1.1-1.1 2.2-2 3-0.8 0.9-1.9 1.6-3 2-1.1 0.5-2.3 0.7-3.5 0.7h-21.8v78h-12v-78h-156v78h-12v-78h-16.7c-1.2 0-2.4-0.2-3.6-0.7-1.1-0.4-2.1-1.1-3-2-0.8-0.8-1.5-1.9-2-3-0.4-1.1-0.7-2.3-0.7-3.5v-13.5c0-1.2 0.3-2.4 0.7-3.6 0.5-1.1 1.2-2.1 2-3 0.9-0.8 1.9-1.5 3-2 1.2-0.4 2.4-0.7 3.6-0.7h218.5c1.2 0 2.4 0.3 3.5 0.7z"/>
	<path id="Layer" class="s1" d="m504.3 337.4c1.1 0.5 2.2 1.2 3 2 0.9 0.9 1.6 1.9 2 3 0.5 1.2 0.7 2.4 0.7 3.6v13.5c0 1.2-0.2 2.4-0.7 3.5-0.4 1.1-1.1 2.2-2 3-0.8 0.9-1.9 1.6-3 2-1.1 0.5-2.3 0.7-3.5 0.7h-308.5c-1.2 0-2.4-0.2-3.6-0.7-1.1-0.4-2.1-1.1-3-2-0.8-0.8-1.5-1.9-2-3-0.4-1.1-0.7-2.3-0.7-3.5v-13.5c0-1.2 0.3-2.4 0.7-3.6 0.5-1.1 1.2-2.1 2-3 0.9-0.8 1.9-1.5 3-2 1.2-0.4 2.4-0.7 3.6-0.7h13.7q-0.7-1.2-1.3-2.5-0.6-1.4-0.9-2.8-0.4-1.4-0.6-2.8-0.2-1.4-0.2-2.9v-128c0-5.8 2.3-11.4 6.5-15.5 4.1-4.2 9.7-6.5 15.5-6.5 5.9 0 11.5 2.3 15.6 6.5 4.1 4.1 6.4 9.7 6.4 15.5v106.6c148.7-23.7 41.3-23.9 206-0.8v-105.8c0-5.8 2.3-11.4 6.5-15.5 4.1-4.2 9.7-6.5 15.5-6.5 5.9 0 11.5 2.3 15.6 6.5 4.1 4.1 6.4 9.7 6.4 15.5v128q0 1.5-0.2 2.9-0.1 1.4-0.5 2.8-0.4 1.4-1 2.8-0.5 1.3-1.2 2.5h6.7c1.2 0 2.4 0.3 3.5 0.7z"/>
	<path id="Layer" class="s4" d="m189.7 206c-1.9-0.2-3.7-0.8-5.3-1.7-1.7-0.9-3.1-2.1-4.3-3.6-1.2-1.4-2.1-3.1-2.6-4.9-0.5-1.8-0.7-3.7-0.5-5.6 0.2-1.6 0.7-3.2 1.4-4.7 0.7-1.5 1.6-2.8 2.8-4 1.1-1.1 2.4-2.1 3.9-2.9 1.5-0.7 3-1.2 4.7-1.4l85.9-58.6 22.3 26.6-91.6 45.3q0 0.3 0 0.6 0 0.3 0 0.6 0 0.3 0 0.6-0.1 0.3-0.1 0.6c-0.2 1.9-0.8 3.7-1.7 5.4-1 1.7-2.2 3.2-3.7 4.4-1.5 1.2-3.3 2.2-5.1 2.7-1.9 0.6-3.8 0.8-5.7 0.6q-0.2 0-0.4 0z"/>
	<path id="Layer" class="s5" d="m339.2 140.6c0 0-7.2 13.3-8.8 13.7-1.6 0.3-30.2 0.9-33.4-2.1-3.3-3-3.3 7.6-8.1 10.2-8.6 4.5-11 4.9-11 4.9 0 0-18.7-52.4-14-46.9 4.8 5.5 4.3-1.3 6-6.9 1.6-5.7 9.5 1 13.4 1.7 8.3 1.2 4.9 4.6 7.5 2.1 2.6-2.4 53.9-24 81.7-17.6 27.8 6.4 18.9 24.1 18.9 24.1z"/>
	<path id="Layer" class="s4" d="m242.5 452.2l-15.2-3.1 5-60.4 22.5 4.7-12.3 58.8z"/>
	<path id="Layer" class="s5" d="m239.7 468.3l-46.9-9.8 0.2-0.6c0.5-2.4 1.4-4.7 2.8-6.7 1.4-2 3.1-3.8 5.2-5.1 2-1.3 4.3-2.3 6.7-2.7 2.4-0.5 4.9-0.5 7.3 0l9.9-4.7 14.7 9.9 4.1 0.8z"/>
	<path id="Layer" class="s4" d="m505.1 382.3l-13.5-58.5 22.4-5.2 6.3 60.2-15.2 3.5z"/>
	<path id="Layer" class="s5" d="m503.9 379.5l4.1-0.9 14.4-10.2 10 4.5c2.4-0.5 4.9-0.6 7.3-0.2 2.4 0.4 4.7 1.3 6.8 2.6 2.1 1.3 3.9 3 5.3 5 1.4 2 2.4 4.2 3 6.6l0.1 0.6-46.7 10.8z"/>
	<path id="Layer" class="s5" d="m406.5 273.1c0 0 69.1-88.7 89.2-60.5 22.4 31.7 31 138.9 24.3 138.1 0 0-30 5-35 2-5-3 0 0 7.2-7.3 7.1-7.3 2.8-1.7-3-7.4-5.8-5.7-16.2-79.3-16.2-79.3-17 55-41 57-118 61.9l-73 7.1c0 0-14 51-14 58 0 7-14 28-14 28l-26-4c0 0 9-79 9.4-99.4 1-64.3 86-37 86-37l2.6-29.6z"/>
	<path id="Layer" class="s5" d="m416.1 117.7c0 0 26-2.9 31.5 9.6 5.6 12.4 19.5 38.3 19.5 38.3 0 0-7.1 3.1 0.2-4.8 3.2-3.6-2.8-1.4 1.4-2.8 4.1-1.4 5.5 0 5.5 0l13.8 23.5c0 0-1.1 5.4-8.3 5.6-7.2 0.1 4.2-7-5.5 2.7-5 5-23.2 11.9-23.2 11.9l-46.4-42.6z"/>
	<path id="Layer" class="s6" d="m334.2 105.1l26.2-6.8 12.3-16.9 29.1 3.6 6.2 23 20.7 12.1c0 0-11.4 121.2-8.7 127.8 2.7 6.7-3.9 12.2-12.2 20.8-8.4 8.6 6.9-1 8.8 8.4 2 9.3 16.1 19.2 0 19.1-16-0.1-104.3 4.3-101.6-6.7 2.8-11.1-5.8-14.1-1.6-21.1 4.2-6.9 7-3 5.6-13.3-1.4-10.2-0.1-17.1-0.1-22.7 0-5.5 4.7-55.8 4.7-55.8z"/>
	<path id="Layer" class="s5" d="m428.5 296.4c5 8.9-23.2 11.6-53.8 10.3q-0.2-0.8-0.5-1.6-0.3-0.9-0.6-1.6-0.4-0.8-0.8-1.6-0.5-0.8-0.9-1.5c-3.4-4.9 0.7-38-4.3-41.4 2.3 5.4-6.7 41.3-8.6 46.8-27.7-2.2-52.9-7.2-52.6-13.2 0.1-1.8 5.9-35 8.7-37.5 2.8-2.5-0.1-50 0-60.2 0-10.3 15.2-85.3 15.2-88.1 0-2.8 36-16.6 36-16.6l15.2 87.2 23.1-82q0.9 1.2 1.8 2.3 0.9 1.1 1.9 2.1 0.9 1 2 2 1 1 2.1 1.9c4.6 3.9 23 19.7 23 19.7l-15.7 116.6c0 0 7.4 17.6 7 24.6q0 2.1-0.2 4.2-0.3 2-0.7 4.1-0.4 2-1 4-0.5 2-1.3 3.9c-2.2 6.6-2 3.1 5 15.6z"/>
	<path id="Layer" class="s4" d="m453.3 55.4c1.4 1.3 2.6 2.9 3.4 4.6 0.8 1.8 1.3 3.6 1.4 5.6 0.2 1.9-0.1 3.8-0.7 5.7-0.6 1.8-1.6 3.5-2.9 5q-0.2 0.2-0.4 0.4-0.2 0.2-0.4 0.4-0.2 0.2-0.4 0.4-0.3 0.2-0.5 0.4l28.3 98.2-34.6 1.5-14.7-103c-0.9-1.3-1.6-2.8-2.1-4.4-0.4-1.6-0.6-3.2-0.5-4.9 0.1-1.6 0.4-3.2 1.1-4.7 0.6-1.5 1.4-3 2.5-4.2 1.2-1.4 2.8-2.6 4.4-3.4 1.7-0.8 3.6-1.3 5.4-1.4 1.9-0.1 3.8 0.1 5.6 0.7 1.7 0.6 3.4 1.6 4.8 2.8q0.1 0.2 0.3 0.3z"/>
	<path id="Layer" class="s5" d="m441 169.2c1.2-0.9 35.6-12 35.6-12 0 0 14.7 21.7 5.8 28.8-8.8 7-28.2 8.9-28.2 8.9 0 0-8.1-4.6-7.9-10 0.2-5.4-5.3-15.7-5.3-15.7z"/>
	<path id="Layer" class="s7" d="m419.7 68.3l3.8-27.6c0.5-3.8 3.1-6.4 5.8-5.6l6.7 1.8c2.7 0.8 4.5 4.5 3.9 8.3l-3.7 27.6c-0.5 3.8-3.1 6.3-5.8 5.6l-6.7-1.8c-2.7-0.8-4.5-4.5-4-8.3z"/>
	<path id="Layer" class="s6" d="m421.6 66.7l3.8-25.3c0.5-3.5 2.4-5.7 4.2-4.9l4.5 1.9c1.9 0.8 2.9 4.2 2.4 7.7l-3.8 25.3c-0.6 3.5-2.5 5.7-4.3 4.9l-4.5-1.9c-1.8-0.7-2.9-4.2-2.3-7.7z"/>
	<path id="Layer" class="s5" d="m388.7 2.1c21 2 38.3 17.2 38.3 38.4 0 5-1 10-2.9 14.6-1.9 4.7-4.8 8.9-8.3 12.5-3.6 3.5-7.8 6.4-12.5 8.3-4.6 1.9-9.6 2.9-14.6 2.9-21.2 0-35.8-17.3-38.4-38.3-3.3-27 16-40.5 38.4-38.4z"/>
	<circle id="Layer" class="s4" cx="392.9" cy="47.1" r="34"/>
	<path id="Layer" class="s5" d="m360.4 16.7c2.5-5.2 5.8-10.4 11-13 4.1-2.1 8.8-2.4 13.4-2.6q9.4-0.5 18.7-1c2.8-0.2 5.8-0.3 8.2 1.2 2.1 1.2 3.4 3.5 4.5 5.8q-0.8 0.6-1.5 1.3-0.8 0.6-1.5 1.3-0.7 0.8-1.4 1.5-0.6 0.8-1.2 1.6 4.5 0.7 9 1.4c8.3 3.7 11.7 9 7.9 16.7-1.3 2.6 2.5 5.4 2.5 8.3 0 3-1.6 6.1-4.4 6.9-3.5 1-6.9-2-8.8-5.2-1.8-3.2-3.1-6.9-6-9-4.7-3.4-11.3-1.3-16.7 0.9-5.3 2.2-11.9 4.3-16.6 0.9l1-0.9c-7.1 3.1-8.8 1.8-16.4 3.2-10.5 2 0 32.5 1.5 32.5 1.5 0-4.8-10.3-5.9-17.7-1.9-12.9-2.8-22.3 2.7-34.1z"/>
	<path id="Layer" class="s8" d="m0.1 467.5q0.1-0.2 0.2-0.4 0.2-0.1 0.4-0.2 0.3-0.1 0.5-0.1h910.3c0.3 0 0.6 0.1 0.8 0.3 0.2 0.3 0.4 0.6 0.4 0.9 0 0.3-0.2 0.6-0.4 0.8-0.2 0.2-0.5 0.4-0.8 0.4h-910.3q-0.2 0-0.5-0.1-0.2-0.1-0.4-0.3-0.1-0.1-0.2-0.4-0.1-0.2-0.1-0.4 0-0.3 0.1-0.5z"/>
</svg>